<?xml version="1.0" encoding="UTF-8"?>
<svg xmlns="http://www.w3.org/2000/svg" xmlns:xlink="http://www.w3.org/1999/xlink" width="32pt" height="32pt" viewBox="0 0 32 32" version="1.1">
<g id="surface1">
<path style=" stroke:none;fill-rule:nonzero;fill:rgb(0%,0%,0%);fill-opacity:1;" d="M 20.59375 5.597656 L 5.71875 5.597656 C 4.320312 5.597656 3.1875 6.730469 3.1875 8.125 L 3.1875 29.46875 C 3.1875 30.867188 4.320312 32 5.71875 32 L 20.59375 32 C 21.988281 32 23.125 30.867188 23.125 29.46875 L 23.125 8.125 C 23.117188 6.730469 21.984375 5.597656 20.59375 5.597656 Z M 21.347656 29.464844 C 21.347656 29.882812 21.007812 30.222656 20.585938 30.222656 L 5.710938 30.222656 C 5.292969 30.222656 4.949219 29.882812 4.949219 29.464844 L 4.949219 8.125 C 4.949219 7.707031 5.292969 7.367188 5.710938 7.367188 L 20.585938 7.367188 C 21.007812 7.367188 21.347656 7.707031 21.347656 8.125 Z M 21.347656 29.464844 "/>
<path style=" stroke:none;fill-rule:nonzero;fill:rgb(0%,0%,0%);fill-opacity:1;" d="M 26.28125 0 L 11.40625 0 C 10.011719 0 8.875 1.132812 8.875 2.53125 C 8.875 3.019531 9.269531 3.414062 9.761719 3.414062 C 10.253906 3.414062 10.644531 3.019531 10.644531 2.53125 C 10.644531 2.109375 10.988281 1.769531 11.40625 1.769531 L 26.28125 1.769531 C 26.703125 1.769531 27.042969 2.109375 27.042969 2.53125 L 27.042969 23.875 C 27.042969 24.292969 26.703125 24.632812 26.28125 24.632812 C 25.789062 24.632812 25.398438 25.027344 25.398438 25.519531 C 25.398438 26.011719 25.789062 26.402344 26.28125 26.402344 C 27.679688 26.402344 28.8125 25.269531 28.8125 23.875 L 28.8125 2.53125 C 28.8125 1.132812 27.679688 0 26.28125 0 Z M 26.28125 0 "/>
</g>
</svg>
