<?xml version="1.0" encoding="UTF-8"?>
<svg xmlns="http://www.w3.org/2000/svg" xmlns:xlink="http://www.w3.org/1999/xlink" width="32pt" height="32pt" viewBox="0 0 32 32" version="1.1">
<g id="surface1">
<path style=" stroke:none;fill-rule:nonzero;fill:rgb(0%,0%,0%);fill-opacity:1;" d="M 30.476562 1.523438 C 28.441406 -0.507812 25.136719 -0.507812 23.101562 1.523438 L 2.214844 22.410156 C 2.207031 22.421875 2.199219 22.433594 2.191406 22.441406 C 2.179688 22.457031 2.167969 22.472656 2.160156 22.488281 C 2.128906 22.53125 2.105469 22.574219 2.085938 22.625 C 2.082031 22.640625 2.074219 22.652344 2.070312 22.667969 C 2.066406 22.675781 2.0625 22.679688 2.0625 22.6875 L 0.015625 31.285156 C 0.00390625 31.324219 0.00390625 31.363281 0.00390625 31.402344 C 0.00390625 31.410156 0 31.417969 0 31.425781 C 0 31.492188 0.015625 31.554688 0.0390625 31.617188 C 0.0429688 31.632812 0.046875 31.644531 0.0546875 31.660156 C 0.0820312 31.722656 0.117188 31.78125 0.167969 31.832031 C 0.222656 31.886719 0.289062 31.929688 0.359375 31.957031 C 0.429688 31.984375 0.503906 32 0.578125 32 C 0.621094 32 0.667969 31.996094 0.710938 31.984375 L 9.3125 29.9375 C 9.328125 29.933594 9.34375 29.925781 9.355469 29.921875 C 9.378906 29.914062 9.394531 29.90625 9.414062 29.898438 C 9.457031 29.878906 9.496094 29.855469 9.53125 29.828125 C 9.546875 29.816406 9.558594 29.808594 9.574219 29.796875 C 9.578125 29.789062 9.582031 29.789062 9.585938 29.785156 L 30.476562 8.894531 C 32.507812 6.863281 32.507812 3.554688 30.476562 1.523438 Z M 29.65625 2.34375 C 31.097656 3.785156 31.21875 6.046875 30.03125 7.636719 L 24.363281 1.964844 C 25.953125 0.777344 28.214844 0.902344 29.65625 2.34375 Z M 26.789062 10.945312 L 21.054688 5.210938 L 21.875 4.390625 L 27.609375 10.125 Z M 2.875 29.125 C 2.648438 28.898438 2.28125 28.898438 2.054688 29.125 L 1.617188 29.566406 L 3.09375 23.351562 L 5.65625 23.066406 L 5.328125 26.035156 C 5.324219 26.054688 5.332031 26.074219 5.332031 26.097656 C 5.332031 26.117188 5.324219 26.136719 5.328125 26.160156 C 5.328125 26.179688 5.339844 26.195312 5.34375 26.214844 C 5.351562 26.246094 5.359375 26.277344 5.371094 26.308594 C 5.386719 26.347656 5.40625 26.382812 5.425781 26.414062 C 5.445312 26.441406 5.460938 26.464844 5.484375 26.488281 C 5.511719 26.515625 5.542969 26.542969 5.574219 26.566406 C 5.601562 26.582031 5.625 26.601562 5.65625 26.613281 C 5.695312 26.632812 5.734375 26.640625 5.777344 26.652344 C 5.796875 26.65625 5.816406 26.667969 5.839844 26.671875 C 5.859375 26.675781 5.878906 26.675781 5.902344 26.675781 C 5.925781 26.675781 5.945312 26.675781 5.964844 26.671875 L 8.933594 26.34375 L 8.648438 28.902344 L 2.433594 30.382812 L 2.875 29.945312 C 3.097656 29.71875 3.097656 29.351562 2.875 29.125 Z M 10.140625 25.953125 L 23.101562 12.992188 C 23.328125 12.765625 23.328125 12.398438 23.101562 12.171875 C 22.875 11.945312 22.511719 11.945312 22.285156 12.171875 L 9.324219 25.132812 L 6.558594 25.441406 L 6.867188 22.675781 L 19.828125 9.714844 C 20.054688 9.488281 20.054688 9.121094 19.828125 8.894531 C 19.601562 8.667969 19.234375 8.667969 19.007812 8.894531 L 6.046875 21.855469 L 4.203125 22.0625 L 20.238281 6.027344 L 25.96875 11.761719 L 9.9375 27.796875 Z M 28.425781 9.304688 L 22.695312 3.570312 L 23.511719 2.753906 L 29.246094 8.484375 Z M 28.425781 9.304688 "/>
</g>
</svg>
