<?xml version="1.0" encoding="UTF-8"?>
<svg xmlns="http://www.w3.org/2000/svg" xmlns:xlink="http://www.w3.org/1999/xlink" width="32pt" height="32pt" viewBox="0 0 32 32" version="1.1">
<g id="surface1">
<path style=" stroke:none;fill-rule:nonzero;fill:rgb(0%,0%,0%);fill-opacity:1;" d="M 27.398438 1.679688 C 27.152344 1.578125 21.339844 -0.695312 16.816406 1.703125 C 13.234375 3.605469 6.941406 2.175781 5.332031 1.765625 L 5.332031 0.535156 C 5.332031 0.238281 5.09375 0 4.800781 0 C 4.503906 0 4.265625 0.238281 4.265625 0.535156 L 4.265625 2.132812 C 4.265625 2.140625 4.269531 2.148438 4.269531 2.15625 C 4.269531 2.160156 4.265625 2.167969 4.265625 2.171875 L 4.265625 31.464844 C 4.265625 31.761719 4.503906 32 4.800781 32 C 5.09375 32 5.332031 31.761719 5.332031 31.464844 L 5.332031 18.867188 C 6.546875 19.167969 9.1875 19.738281 11.929688 19.738281 C 13.828125 19.738281 15.769531 19.464844 17.316406 18.644531 C 21.398438 16.476562 26.945312 18.644531 27.003906 18.667969 C 27.167969 18.734375 27.351562 18.714844 27.5 18.613281 C 27.644531 18.515625 27.734375 18.351562 27.734375 18.171875 L 27.734375 2.171875 C 27.734375 1.953125 27.601562 1.757812 27.398438 1.679688 Z M 26.667969 17.421875 C 24.929688 16.867188 20.457031 15.769531 16.816406 17.703125 C 13.234375 19.601562 6.945312 18.175781 5.332031 17.765625 L 5.332031 2.867188 C 7.386719 3.378906 13.535156 4.648438 17.316406 2.644531 C 20.820312 0.785156 25.402344 2.117188 26.667969 2.546875 Z M 26.667969 17.421875 "/>
</g>
</svg>
