<svg version="1.1" xmlns="http://www.w3.org/2000/svg" xmlns:xlink="http://www.w3.org/1999/xlink" width="32" height="700" viewBox="0 0 32 700">
    <defs>
        <g id="icon-user-pass" >
            <path d="M 20.9375 0 C 14.972656 0 10.121094 4.851562 10.121094 10.816406 C 10.121094 12.140625 10.355469 13.429688 10.820312 14.652344 L 0.480469 24.996094 C 0.332031 25.144531 0.25 25.34375 0.25 25.554688 L 0.25 31.210938 C 0.25 31.648438 0.601562 32 1.035156 32 L 5.699219 32 C 5.910156 32 6.109375 31.917969 6.257812 31.769531 L 7.828125 30.199219 C 7.976562 30.050781 8.058594 29.851562 8.058594 29.644531 L 8.058594 27.710938 L 9.988281 27.710938 C 10.421875 27.710938 10.777344 27.359375 10.777344 26.925781 L 10.777344 26.152344 L 11.546875 26.152344 C 11.984375 26.152344 12.335938 25.800781 12.335938 25.363281 L 12.335938 23.667969 L 14.03125 23.667969 C 14.242188 23.667969 14.441406 23.585938 14.589844 23.4375 L 17.097656 20.929688 C 18.320312 21.394531 19.609375 21.632812 20.9375 21.632812 C 26.898438 21.632812 31.75 16.777344 31.75 10.816406 C 31.75 4.851562 26.898438 0 20.9375 0 Z M 20.9375 20.054688 C 19.644531 20.054688 18.398438 19.792969 17.226562 19.28125 C 16.925781 19.148438 16.582031 19.21875 16.359375 19.4375 C 16.359375 19.441406 16.355469 19.441406 16.351562 19.445312 L 13.707031 22.089844 L 11.546875 22.089844 C 11.113281 22.089844 10.761719 22.445312 10.761719 22.878906 L 10.761719 24.574219 L 9.988281 24.574219 C 9.550781 24.574219 9.199219 24.929688 9.199219 25.363281 L 9.199219 26.136719 L 7.273438 26.136719 C 6.835938 26.136719 6.484375 26.488281 6.484375 26.925781 L 6.484375 29.316406 L 5.375 30.421875 L 1.824219 30.421875 L 1.824219 29.308594 L 11.457031 19.675781 C 11.734375 19.398438 11.734375 18.949219 11.457031 18.671875 C 11.183594 18.394531 10.734375 18.394531 10.457031 18.671875 L 1.824219 27.304688 L 1.824219 25.878906 L 12.304688 15.398438 C 12.308594 15.394531 12.308594 15.394531 12.3125 15.390625 C 12.53125 15.167969 12.601562 14.828125 12.46875 14.523438 C 11.957031 13.351562 11.695312 12.105469 11.695312 10.816406 C 11.695312 5.722656 15.839844 1.578125 20.9375 1.578125 C 26.03125 1.578125 30.175781 5.722656 30.175781 10.816406 C 30.175781 15.910156 26.03125 20.054688 20.9375 20.054688 Z M 20.9375 20.054688 "/>
            <path d="M 24.226562 4.570312 C 22.597656 4.570312 21.273438 5.894531 21.273438 7.523438 C 21.273438 9.152344 22.597656 10.476562 24.226562 10.476562 C 25.855469 10.476562 27.179688 9.152344 27.179688 7.523438 C 27.179688 5.894531 25.855469 4.570312 24.226562 4.570312 Z M 24.226562 8.898438 C 23.46875 8.898438 22.851562 8.28125 22.851562 7.523438 C 22.851562 6.765625 23.46875 6.148438 24.226562 6.148438 C 24.984375 6.148438 25.601562 6.765625 25.601562 7.523438 C 25.601562 8.28125 24.984375 8.898438 24.226562 8.898438 Z M 24.226562 8.898438 "/>
        </g>
        <g id="icon-user">
            <path d="M 16 0 C 7.164062 0 0 7.164062 0 16 C 0 24.835938 7.164062 32 16 32 C 24.835938 32 32 24.835938 32 16 C 32 7.164062 24.835938 0 16 0 Z M 16.046875 23.546875 L 9.117188 23.546875 C 9.117188 18.550781 13.507812 18.550781 14.480469 17.246094 L 14.589844 16.648438 C 13.222656 15.953125 12.257812 14.28125 12.257812 12.328125 C 12.257812 9.75 13.933594 7.660156 16 7.660156 C 18.066406 7.660156 19.742188 9.75 19.742188 12.328125 C 19.742188 14.265625 18.792969 15.925781 17.445312 16.632812 L 17.570312 17.308594 C 18.640625 18.554688 22.882812 18.632812 22.882812 23.546875 Z M 16.046875 23.546875 "/>
        </g>
        <g id="icon-sun">
            <path style=" stroke:none;fill-rule:nonzero;fill:rgb(98.823529%,62.352941%,39.607843%);fill-opacity:1;" d="M 31.710938 15.449219 L 27.589844 12.574219 C 27.078125 12.21875 26.507812 11.992188 25.925781 11.886719 C 26.265625 11.402344 26.507812 10.84375 26.617188 10.226562 L 27.5 5.28125 C 27.582031 4.820312 27.179688 4.417969 26.71875 4.5 L 21.773438 5.382812 C 21.15625 5.492188 20.597656 5.734375 20.113281 6.074219 C 20.007812 5.492188 19.78125 4.921875 19.425781 4.410156 L 16.550781 0.289062 C 16.285156 -0.0976562 15.714844 -0.0976562 15.449219 0.289062 L 12.574219 4.410156 C 12.21875 4.921875 11.992188 5.492188 11.886719 6.074219 C 11.402344 5.734375 10.84375 5.492188 10.226562 5.382812 L 5.28125 4.5 C 4.820312 4.417969 4.417969 4.820312 4.5 5.28125 L 5.382812 10.226562 C 5.492188 10.84375 5.734375 11.402344 6.074219 11.886719 C 5.492188 11.992188 4.921875 12.21875 4.410156 12.574219 L 0.289062 15.449219 C -0.0976562 15.714844 -0.0976562 16.285156 0.289062 16.550781 L 4.410156 19.425781 C 4.921875 19.78125 5.492188 20.007812 6.074219 20.113281 C 5.734375 20.597656 5.492188 21.15625 5.382812 21.773438 L 4.5 26.71875 C 4.417969 27.179688 4.820312 27.582031 5.28125 27.5 L 10.226562 26.617188 C 10.84375 26.507812 11.402344 26.265625 11.886719 25.925781 C 11.992188 26.507812 12.21875 27.078125 12.574219 27.589844 L 15.449219 31.710938 C 15.714844 32.097656 16.285156 32.097656 16.550781 31.710938 L 19.425781 27.589844 C 19.78125 27.078125 20.007812 26.507812 20.113281 25.925781 C 20.597656 26.265625 21.15625 26.507812 21.773438 26.617188 L 26.71875 27.5 C 27.179688 27.582031 27.582031 27.179688 27.5 26.71875 L 26.617188 21.773438 C 26.507812 21.15625 26.265625 20.597656 25.925781 20.113281 C 26.507812 20.007812 27.078125 19.78125 27.589844 19.425781 L 31.710938 16.550781 C 32.097656 16.285156 32.097656 15.714844 31.710938 15.449219 Z M 31.710938 15.449219 "/>
            <path style=" stroke:none;fill-rule:nonzero;fill:rgb(98.431373%,86.666667%,33.72549%);fill-opacity:1;" d="M 25.511719 16 C 25.511719 21.253906 21.253906 25.511719 16 25.511719 C 10.746094 25.511719 6.488281 21.253906 6.488281 16 C 6.488281 10.746094 10.746094 6.488281 16 6.488281 C 21.253906 6.488281 25.511719 10.746094 25.511719 16 Z M 25.511719 16 "/>
            <path style=" stroke:none;fill-rule:nonzero;fill:rgb(100%,43.137255%,43.137255%);fill-opacity:1;" d="M 13.019531 15.152344 C 13.019531 14.386719 12.238281 13.765625 11.273438 13.765625 C 10.3125 13.765625 9.53125 14.386719 9.53125 15.152344 C 9.53125 15.917969 10.3125 16.542969 11.273438 16.542969 C 12.238281 16.542969 13.019531 15.917969 13.019531 15.152344 Z M 13.019531 15.152344 "/>
            <path style=" stroke:none;fill-rule:nonzero;fill:rgb(100%,43.137255%,43.137255%);fill-opacity:1;" d="M 22.46875 15.152344 C 22.46875 14.386719 21.6875 13.765625 20.726562 13.765625 C 19.761719 13.765625 18.980469 14.386719 18.980469 15.152344 C 18.980469 15.917969 19.761719 16.542969 20.726562 16.542969 C 21.6875 16.542969 22.46875 15.917969 22.46875 15.152344 Z M 22.46875 15.152344 "/>
            <path style=" stroke:none;fill-rule:nonzero;fill:rgb(25.490196%,29.411765%,34.509804%);fill-opacity:1;" d="M 11.566406 13.980469 C 11.308594 13.980469 11.097656 13.773438 11.097656 13.511719 L 11.097656 12.765625 C 11.097656 12.503906 11.308594 12.296875 11.566406 12.296875 C 11.824219 12.296875 12.035156 12.503906 12.035156 12.765625 L 12.035156 13.511719 C 12.035156 13.773438 11.824219 13.980469 11.566406 13.980469 Z M 11.566406 13.980469 "/>
            <path style=" stroke:none;fill-rule:nonzero;fill:rgb(25.490196%,29.411765%,34.509804%);fill-opacity:1;" d="M 16 15.347656 C 15.300781 15.347656 14.738281 14.78125 14.738281 14.085938 L 14.738281 13.167969 C 14.738281 12.976562 14.890625 12.820312 15.082031 12.820312 L 16.917969 12.820312 C 17.109375 12.820312 17.261719 12.976562 17.261719 13.167969 L 17.261719 14.085938 C 17.261719 14.78125 16.699219 15.347656 16 15.347656 Z M 16 15.347656 "/>
            <path style=" stroke:none;fill-rule:nonzero;fill:rgb(25.490196%,29.411765%,34.509804%);fill-opacity:1;" d="M 20.433594 13.980469 C 20.175781 13.980469 19.964844 13.773438 19.964844 13.511719 L 19.964844 12.765625 C 19.964844 12.503906 20.175781 12.296875 20.433594 12.296875 C 20.691406 12.296875 20.902344 12.503906 20.902344 12.765625 L 20.902344 13.511719 C 20.902344 13.773438 20.691406 13.980469 20.433594 13.980469 Z M 20.433594 13.980469 "/>
            <path style=" stroke:none;fill-rule:nonzero;fill:rgb(98.823529%,62.352941%,39.607843%);fill-opacity:1;" d="M 10.78125 3.871094 C 10.597656 3.871094 10.421875 3.761719 10.347656 3.582031 L 9.703125 2.023438 C 9.605469 1.785156 9.71875 1.507812 9.957031 1.410156 C 10.195312 1.3125 10.46875 1.425781 10.570312 1.664062 L 11.214844 3.222656 C 11.3125 3.460938 11.199219 3.734375 10.960938 3.835938 C 10.902344 3.859375 10.839844 3.871094 10.78125 3.871094 Z M 10.78125 3.871094 "/>
            <path style=" stroke:none;fill-rule:nonzero;fill:rgb(98.823529%,62.352941%,39.607843%);fill-opacity:1;" d="M 3.402344 11.25 C 3.34375 11.25 3.28125 11.238281 3.222656 11.214844 L 1.664062 10.570312 C 1.425781 10.46875 1.3125 10.195312 1.410156 9.957031 C 1.507812 9.71875 1.785156 9.605469 2.023438 9.703125 L 3.582031 10.347656 C 3.820312 10.449219 3.933594 10.722656 3.835938 10.960938 C 3.761719 11.140625 3.585938 11.25 3.402344 11.25 Z M 3.402344 11.25 "/>
            <path style=" stroke:none;fill-rule:nonzero;fill:rgb(98.823529%,62.352941%,39.607843%);fill-opacity:1;" d="M 1.84375 22.332031 C 1.660156 22.332031 1.484375 22.222656 1.410156 22.042969 C 1.3125 21.804688 1.425781 21.53125 1.664062 21.429688 L 3.222656 20.785156 C 3.460938 20.6875 3.734375 20.800781 3.835938 21.039062 C 3.933594 21.277344 3.820312 21.550781 3.582031 21.652344 L 2.023438 22.296875 C 1.964844 22.320312 1.902344 22.332031 1.84375 22.332031 Z M 1.84375 22.332031 "/>
            <path style=" stroke:none;fill-rule:nonzero;fill:rgb(98.823529%,62.352941%,39.607843%);fill-opacity:1;" d="M 10.136719 30.625 C 10.074219 30.625 10.015625 30.613281 9.957031 30.589844 C 9.71875 30.492188 9.605469 30.214844 9.703125 29.976562 L 10.347656 28.417969 C 10.449219 28.179688 10.722656 28.066406 10.960938 28.164062 C 11.199219 28.265625 11.3125 28.539062 11.214844 28.777344 L 10.570312 30.335938 C 10.496094 30.515625 10.320312 30.625 10.136719 30.625 Z M 10.136719 30.625 "/>
            <path style=" stroke:none;fill-rule:nonzero;fill:rgb(98.823529%,62.352941%,39.607843%);fill-opacity:1;" d="M 21.863281 30.625 C 21.679688 30.625 21.503906 30.515625 21.429688 30.335938 L 20.785156 28.777344 C 20.6875 28.539062 20.800781 28.265625 21.039062 28.164062 C 21.277344 28.066406 21.550781 28.179688 21.652344 28.417969 L 22.296875 29.976562 C 22.394531 30.214844 22.28125 30.492188 22.042969 30.589844 C 21.984375 30.613281 21.921875 30.625 21.863281 30.625 Z M 21.863281 30.625 "/>
            <path style=" stroke:none;fill-rule:nonzero;fill:rgb(98.823529%,62.352941%,39.607843%);fill-opacity:1;" d="M 30.15625 22.332031 C 30.097656 22.332031 30.035156 22.320312 29.976562 22.296875 L 28.417969 21.652344 C 28.179688 21.550781 28.066406 21.277344 28.164062 21.039062 C 28.265625 20.800781 28.539062 20.6875 28.777344 20.785156 L 30.335938 21.429688 C 30.574219 21.53125 30.6875 21.804688 30.589844 22.042969 C 30.515625 22.222656 30.339844 22.332031 30.15625 22.332031 Z M 30.15625 22.332031 "/>
            <path style=" stroke:none;fill-rule:nonzero;fill:rgb(98.823529%,62.352941%,39.607843%);fill-opacity:1;" d="M 28.597656 11.25 C 28.414062 11.25 28.238281 11.140625 28.164062 10.960938 C 28.066406 10.722656 28.179688 10.449219 28.417969 10.347656 L 29.976562 9.703125 C 30.214844 9.605469 30.492188 9.71875 30.589844 9.957031 C 30.6875 10.195312 30.574219 10.46875 30.335938 10.570312 L 28.777344 11.214844 C 28.71875 11.238281 28.65625 11.25 28.597656 11.25 Z M 28.597656 11.25 "/>
            <path style=" stroke:none;fill-rule:nonzero;fill:rgb(98.823529%,62.352941%,39.607843%);fill-opacity:1;" d="M 21.21875 3.871094 C 21.15625 3.871094 21.097656 3.859375 21.039062 3.835938 C 20.800781 3.734375 20.6875 3.460938 20.785156 3.222656 L 21.429688 1.664062 C 21.53125 1.425781 21.804688 1.3125 22.042969 1.410156 C 22.28125 1.507812 22.394531 1.785156 22.296875 2.023438 L 21.652344 3.582031 C 21.578125 3.761719 21.402344 3.871094 21.21875 3.871094 Z M 21.21875 3.871094 "/>
        </g>
        <g id="icon-calendar">
            <path style=" stroke:none;fill-rule:nonzero;fill:rgb(84.705882%,86.27451%,88.235294%);fill-opacity:1;" d="M 0 8.375 L 0 28.875 C 0 30.253906 1.121094 31.375 2.5 31.375 L 29.5 31.375 C 30.878906 31.375 32 30.253906 32 28.875 L 32 8.375 Z M 0 8.375 "/>
            <path style=" stroke:none;fill-rule:nonzero;fill:rgb(100%,30.980392%,9.803922%);fill-opacity:1;" d="M 29.5 1.375 L 2.5 1.375 C 1.121094 1.375 0 2.496094 0 3.875 L 0 8.375 L 32 8.375 L 32 3.875 C 32 2.496094 30.878906 1.375 29.5 1.375 Z M 4 6.375 C 3.171875 6.375 2.5 5.703125 2.5 4.875 C 2.5 4.046875 3.171875 3.375 4 3.375 C 4.828125 3.375 5.5 4.046875 5.5 4.875 C 5.5 5.703125 4.828125 6.375 4 6.375 Z M 28 6.375 C 27.171875 6.375 26.5 5.703125 26.5 4.875 C 26.5 4.046875 27.171875 3.375 28 3.375 C 28.828125 3.375 29.5 4.046875 29.5 4.875 C 29.5 5.703125 28.828125 6.375 28 6.375 Z M 28 6.375 "/>
            <path style=" stroke:none;fill-rule:nonzero;fill:rgb(100%,100%,100%);fill-opacity:1;" d="M 16 12.875 C 14.898438 12.875 14 13.773438 14 14.875 C 14 15.976562 14.898438 16.875 16 16.875 C 17.101562 16.875 18 15.976562 18 14.875 C 18 13.773438 17.101562 12.875 16 12.875 Z M 16 12.875 "/>
            <path style=" stroke:none;fill-rule:nonzero;fill:rgb(100%,100%,100%);fill-opacity:1;" d="M 11 12.875 C 9.898438 12.875 9 13.773438 9 14.875 C 9 15.976562 9.898438 16.875 11 16.875 C 12.101562 16.875 13 15.976562 13 14.875 C 13 13.773438 12.101562 12.875 11 12.875 Z M 11 12.875 "/>
            <path style=" stroke:none;fill-rule:nonzero;fill:rgb(100%,100%,100%);fill-opacity:1;" d="M 6 12.875 C 4.898438 12.875 4 13.773438 4 14.875 C 4 15.976562 4.898438 16.875 6 16.875 C 7.101562 16.875 8 15.976562 8 14.875 C 8 13.773438 7.101562 12.875 6 12.875 Z M 6 12.875 "/>
            <path style=" stroke:none;fill-rule:nonzero;fill:rgb(100%,100%,100%);fill-opacity:1;" d="M 21 12.875 C 19.898438 12.875 19 13.773438 19 14.875 C 19 15.976562 19.898438 16.875 21 16.875 C 22.101562 16.875 23 15.976562 23 14.875 C 23 13.773438 22.101562 12.875 21 12.875 Z M 21 12.875 "/>
            <path style=" stroke:none;fill-rule:nonzero;fill:rgb(100%,100%,100%);fill-opacity:1;" d="M 26 16.875 C 27.101562 16.875 28 15.976562 28 14.875 C 28 13.773438 27.101562 12.875 26 12.875 C 24.898438 12.875 24 13.773438 24 14.875 C 24 15.976562 24.898438 16.875 26 16.875 Z M 26 16.875 "/>
            <path style=" stroke:none;fill-rule:nonzero;fill:rgb(100%,100%,100%);fill-opacity:1;" d="M 16 17.875 C 14.898438 17.875 14 18.773438 14 19.875 C 14 20.976562 14.898438 21.875 16 21.875 C 17.101562 21.875 18 20.976562 18 19.875 C 18 18.773438 17.101562 17.875 16 17.875 Z M 16 17.875 "/>
            <path style=" stroke:none;fill-rule:nonzero;fill:rgb(100%,100%,100%);fill-opacity:1;" d="M 11 17.875 C 9.898438 17.875 9 18.773438 9 19.875 C 9 20.976562 9.898438 21.875 11 21.875 C 12.101562 21.875 13 20.976562 13 19.875 C 13 18.773438 12.101562 17.875 11 17.875 Z M 11 17.875 "/>
            <path style=" stroke:none;fill-rule:nonzero;fill:rgb(100%,100%,100%);fill-opacity:1;" d="M 6 17.875 C 4.898438 17.875 4 18.773438 4 19.875 C 4 20.976562 4.898438 21.875 6 21.875 C 7.101562 21.875 8 20.976562 8 19.875 C 8 18.773438 7.101562 17.875 6 17.875 Z M 6 17.875 "/>
            <path style=" stroke:none;fill-rule:nonzero;fill:rgb(100%,100%,100%);fill-opacity:1;" d="M 21 17.875 C 19.898438 17.875 19 18.773438 19 19.875 C 19 20.976562 19.898438 21.875 21 21.875 C 22.101562 21.875 23 20.976562 23 19.875 C 23 18.773438 22.101562 17.875 21 17.875 Z M 21 17.875 "/>
            <path style=" stroke:none;fill-rule:nonzero;fill:rgb(100%,100%,100%);fill-opacity:1;" d="M 26 17.875 C 24.898438 17.875 24 18.773438 24 19.875 C 24 20.976562 24.898438 21.875 26 21.875 C 27.101562 21.875 28 20.976562 28 19.875 C 28 18.773438 27.101562 17.875 26 17.875 Z M 26 17.875 "/>
            <path style=" stroke:none;fill-rule:nonzero;fill:rgb(100%,100%,100%);fill-opacity:1;" d="M 16 22.875 C 14.898438 22.875 14 23.773438 14 24.875 C 14 25.976562 14.898438 26.875 16 26.875 C 17.101562 26.875 18 25.976562 18 24.875 C 18 23.773438 17.101562 22.875 16 22.875 Z M 16 22.875 "/>
            <path style=" stroke:none;fill-rule:nonzero;fill:rgb(100%,100%,100%);fill-opacity:1;" d="M 11 22.875 C 9.898438 22.875 9 23.773438 9 24.875 C 9 25.976562 9.898438 26.875 11 26.875 C 12.101562 26.875 13 25.976562 13 24.875 C 13 23.773438 12.101562 22.875 11 22.875 Z M 11 22.875 "/>
            <path style=" stroke:none;fill-rule:nonzero;fill:rgb(100%,100%,100%);fill-opacity:1;" d="M 6 22.875 C 4.898438 22.875 4 23.773438 4 24.875 C 4 25.976562 4.898438 26.875 6 26.875 C 7.101562 26.875 8 25.976562 8 24.875 C 8 23.773438 7.101562 22.875 6 22.875 Z M 6 22.875 "/>
            <path style=" stroke:none;fill-rule:nonzero;fill:rgb(100%,100%,100%);fill-opacity:1;" d="M 21 22.875 C 19.898438 22.875 19 23.773438 19 24.875 C 19 25.976562 19.898438 26.875 21 26.875 C 22.101562 26.875 23 25.976562 23 24.875 C 23 23.773438 22.101562 22.875 21 22.875 Z M 21 22.875 "/>
            <path style=" stroke:none;fill-rule:nonzero;fill:rgb(100%,100%,100%);fill-opacity:1;" d="M 26 22.875 C 24.898438 22.875 24 23.773438 24 24.875 C 24 25.976562 24.898438 26.875 26 26.875 C 27.101562 26.875 28 25.976562 28 24.875 C 28 23.773438 27.101562 22.875 26 22.875 Z M 26 22.875 "/>
            <path style=" stroke:none;fill-rule:nonzero;fill:rgb(36.078431%,32.941176%,41.568627%);fill-opacity:1;" d="M 4 5.625 C 3.585938 5.625 3.25 5.289062 3.25 4.875 L 3.25 1.375 C 3.25 0.960938 3.585938 0.625 4 0.625 C 4.414062 0.625 4.75 0.960938 4.75 1.375 L 4.75 4.875 C 4.75 5.289062 4.414062 5.625 4 5.625 Z M 4 5.625 "/>
            <path style=" stroke:none;fill-rule:nonzero;fill:rgb(36.078431%,32.941176%,41.568627%);fill-opacity:1;" d="M 28 5.625 C 27.585938 5.625 27.25 5.289062 27.25 4.875 L 27.25 1.375 C 27.25 0.960938 27.585938 0.625 28 0.625 C 28.414062 0.625 28.75 0.960938 28.75 1.375 L 28.75 4.875 C 28.75 5.289062 28.414062 5.625 28 5.625 Z M 28 5.625 "/>
            <path style=" stroke:none;fill-rule:nonzero;fill:rgb(100%,82.352941%,0%);fill-opacity:1;" d="M 8 14.875 C 8 15.980469 7.105469 16.875 6 16.875 C 4.894531 16.875 4 15.980469 4 14.875 C 4 13.769531 4.894531 12.875 6 12.875 C 7.105469 12.875 8 13.769531 8 14.875 Z M 8 14.875 "/>
            <path style=" stroke:none;fill-rule:nonzero;fill:rgb(100%,58.823529%,0%);fill-opacity:1;" d="M 18 24.875 C 18 25.980469 17.105469 26.875 16 26.875 C 14.894531 26.875 14 25.980469 14 24.875 C 14 23.769531 14.894531 22.875 16 22.875 C 17.105469 22.875 18 23.769531 18 24.875 Z M 18 24.875 "/>            <path style=" stroke:none;fill-rule:nonzero;fill:rgb(100%,30.980392%,9.803922%);fill-opacity:1;" d="M 23 19.875 C 23 20.980469 22.105469 21.875 21 21.875 C 19.894531 21.875 19 20.980469 19 19.875 C 19 18.769531 19.894531 17.875 21 17.875 C 22.105469 17.875 23 18.769531 23 19.875 Z M 23 19.875 "/>
        </g>

        <g id="icon-hz">
            <path style=" stroke:none;fill-rule:nonzero;fill:rgb(93.72549%,93.72549%,93.72549%);fill-opacity:1;" d="M 1.5 0 L 30.5 0 C 31.324219 0 32 0.675781 32 1.5 L 32 30.5 C 32 31.324219 31.324219 32 30.5 32 L 1.5 32 C 0.675781 32 0 31.324219 0 30.5 L 0 1.5 C 0 0.675781 0.675781 0 1.5 0 Z M 1.5 0 "/>
            <path style=" stroke:none;fill-rule:nonzero;fill:rgb(16.862745%,25.490196%,30.196078%);fill-opacity:1;" d="M 3 6 L 29 6 C 29.550781 6 30 6.449219 30 7 L 30 29 C 30 29.550781 29.550781 30 29 30 L 3 30 C 2.449219 30 2 29.550781 2 29 L 2 7 C 2 6.449219 2.449219 6 3 6 Z M 3 6 "/>
            <path style=" stroke:none;fill-rule:nonzero;fill:rgb(89.411765%,90.588235%,90.588235%);fill-opacity:1;" d="M 7 10.5 L 21.5 10.5 C 21.773438 10.5 22 10.726562 22 11 L 22 11.5 C 22 11.773438 21.773438 12 21.5 12 L 7 12 C 6.726562 12 6.5 11.773438 6.5 11.5 L 6.5 11 C 6.5 10.726562 6.726562 10.5 7 10.5 Z M 7 10.5 "/>
            <path style=" stroke:none;fill-rule:nonzero;fill:rgb(89.019608%,36.862745%,32.54902%);fill-opacity:1;" d="M 13 14 L 7 14 C 6.726562 14 6.5 14.226562 6.5 14.5 L 6.5 15 C 6.5 15.273438 6.726562 15.5 7 15.5 L 13 15.5 C 13.273438 15.5 13.5 15.273438 13.5 15 L 13.5 14.5 C 13.5 14.226562 13.273438 14 13 14 Z M 11.5 21 L 7 21 C 6.726562 21 6.5 21.226562 6.5 21.5 L 6.5 22 C 6.5 22.273438 6.726562 22.5 7 22.5 L 11.5 22.5 C 11.773438 22.5 12 22.273438 12 22 L 12 21.5 C 12 21.226562 11.773438 21 11.5 21 Z M 25 21 L 22 21 C 21.726562 21 21.5 21.226562 21.5 21.5 L 21.5 22 C 21.5 22.273438 21.726562 22.5 22 22.5 L 25 22.5 C 25.273438 22.5 25.5 22.273438 25.5 22 L 25.5 21.5 C 25.5 21.226562 25.273438 21 25 21 Z M 25 21 "/>
            <path style=" stroke:none;fill-rule:nonzero;fill:rgb(14.901961%,65.098039%,81.960784%);fill-opacity:1;" d="M 25 14 L 16 14 C 15.726562 14 15.5 14.226562 15.5 14.5 L 15.5 15 C 15.5 15.273438 15.726562 15.5 16 15.5 L 25 15.5 C 25.273438 15.5 25.5 15.273438 25.5 15 L 25.5 14.5 C 25.5 14.226562 25.273438 14 25 14 Z M 25 24.5 L 7 24.5 C 6.726562 24.5 6.5 24.726562 6.5 25 L 6.5 25.5 C 6.5 25.773438 6.726562 26 7 26 L 25 26 C 25.273438 26 25.5 25.773438 25.5 25.5 L 25.5 25 C 25.5 24.726562 25.273438 24.5 25 24.5 Z M 25 24.5 "/>
            <path style=" stroke:none;fill-rule:nonzero;fill:rgb(28.627451%,72.156863%,64.313725%);fill-opacity:1;" d="M 19 17.5 L 7 17.5 C 6.726562 17.5 6.5 17.726562 6.5 18 L 6.5 18.5 C 6.5 18.773438 6.726562 19 7 19 L 19 19 C 19.273438 19 19.5 18.773438 19.5 18.5 L 19.5 18 C 19.5 17.726562 19.273438 17.5 19 17.5 Z M 19 21 L 14.5 21 C 14.226562 21 14 21.226562 14 21.5 L 14 22 C 14 22.273438 14.226562 22.5 14.5 22.5 L 19 22.5 C 19.273438 22.5 19.5 22.273438 19.5 22 L 19.5 21.5 C 19.5 21.226562 19.273438 21 19 21 Z M 19 21 "/>
        </g>
        <g id="icon-completed">
            <path style=" stroke:none;fill-rule:nonzero;fill:#65A6D1;fill-opacity:1;" d="M 16 32 C 7.179688 32 0 24.820312 0 16 C 0 7.179688 7.179688 0 16 0 C 24.820312 0 32 7.179688 32 16 C 32 24.820312 24.820312 32 16 32 Z M 16 32 "/>
            <path style=" stroke:none;fill-rule:nonzero;fill:#24587A;fill-opacity:1;" d="M 23.464844 26.667969 C 14.644531 26.667969 7.464844 19.488281 7.464844 10.667969 C 7.464844 6.972656 8.738281 3.578125 10.847656 0.867188 C 4.546875 3.019531 0 8.984375 0 16 C 0 24.820312 7.179688 32 16 32 C 21.128906 32 25.691406 29.5625 28.621094 25.800781 C 27 26.351562 25.269531 26.667969 23.464844 26.667969 Z M 23.464844 26.667969 "/>
            <path style=" stroke:none;fill-rule:nonzero;fill:rgb(100%,100%,100%);fill-opacity:1;" d="M 12.691406 24.277344 C 12.40625 24.277344 12.125 24.167969 11.910156 23.953125 L 5.289062 17.332031 C 4.859375 16.902344 4.859375 16.203125 5.289062 15.773438 C 5.71875 15.339844 6.417969 15.339844 6.847656 15.773438 L 12.691406 21.613281 L 24.046875 10.253906 C 24.476562 9.824219 25.175781 9.824219 25.609375 10.253906 C 26.039062 10.683594 26.039062 11.382812 25.609375 11.816406 L 13.46875 23.953125 C 13.253906 24.167969 12.972656 24.277344 12.691406 24.277344 Z M 12.691406 24.277344 "/>
        </g>
        <g id="icon-diagram">
            <path d="M 2.554688 18.707031 L 2.554688 31.625 L 9.28125 31.625 L 9.28125 18.707031 Z M 2.554688 18.707031 "/>
            <path d="M 9.28125 12.050781 L 9.28125 17.039062 L 10.949219 17.039062 L 10.949219 31.625 L 16 31.625 L 16 12.050781 Z M 9.28125 12.050781 "/>
            <path d="M 16 6.09375 L 16 10.382812 L 17.667969 10.382812 L 17.667969 31.625 L 22.71875 31.625 L 22.71875 6.09375 Z M 16 6.09375 "/>
            <path d="M 22.71875 0.375 L 22.71875 4.425781 L 24.386719 4.425781 L 24.386719 31.625 L 29.445312 31.625 L 29.445312 0.375 Z M 22.71875 0.375 "/>
        </g>
        <g id="icon-setting">
            <path  d="M 31.898438 14.222656 C 31.847656 13.773438 31.324219 13.4375 30.871094 13.4375 C 29.40625 13.4375 28.101562 12.574219 27.558594 11.242188 C 27 9.878906 27.359375 8.289062 28.453125 7.285156 C 28.796875 6.972656 28.839844 6.445312 28.550781 6.078125 C 27.800781 5.128906 26.945312 4.265625 26.015625 3.519531 C 25.648438 3.226562 25.117188 3.269531 24.800781 3.617188 C 23.84375 4.675781 22.132812 5.066406 20.808594 4.515625 C 19.429688 3.933594 18.5625 2.539062 18.648438 1.042969 C 18.675781 0.570312 18.332031 0.160156 17.863281 0.105469 C 16.667969 -0.03125 15.460938 -0.0351562 14.261719 0.0976562 C 13.796875 0.148438 13.453125 0.546875 13.46875 1.011719 C 13.523438 2.496094 12.644531 3.867188 11.28125 4.425781 C 9.972656 4.960938 8.269531 4.570312 7.320312 3.523438 C 7.003906 3.179688 6.476562 3.136719 6.109375 3.421875 C 5.152344 4.175781 4.28125 5.035156 3.523438 5.980469 C 3.226562 6.347656 3.269531 6.882812 3.617188 7.199219 C 4.730469 8.207031 5.089844 9.8125 4.511719 11.191406 C 3.960938 12.503906 2.59375 13.351562 1.03125 13.351562 C 0.523438 13.335938 0.164062 13.675781 0.105469 14.136719 C -0.0351562 15.339844 -0.0351562 16.566406 0.101562 17.777344 C 0.152344 18.230469 0.691406 18.5625 1.148438 18.5625 C 2.542969 18.527344 3.878906 19.390625 4.441406 20.757812 C 5 22.121094 4.640625 23.710938 3.546875 24.714844 C 3.203125 25.027344 3.160156 25.554688 3.449219 25.917969 C 4.191406 26.867188 5.046875 27.726562 5.980469 28.480469 C 6.347656 28.773438 6.882812 28.734375 7.199219 28.382812 C 8.15625 27.324219 9.867188 26.933594 11.1875 27.484375 C 12.570312 28.0625 13.4375 29.460938 13.351562 30.957031 C 13.324219 31.429688 13.671875 31.839844 14.136719 31.894531 C 14.75 31.964844 15.363281 32 15.980469 32 C 16.566406 32 17.152344 31.96875 17.738281 31.902344 C 18.199219 31.851562 18.542969 31.453125 18.527344 30.988281 C 18.476562 29.503906 19.355469 28.132812 20.71875 27.574219 C 22.035156 27.035156 23.730469 27.429688 24.679688 28.476562 C 24.996094 28.820312 25.519531 28.863281 25.886719 28.578125 C 26.84375 27.828125 27.714844 26.964844 28.476562 26.019531 C 28.773438 25.652344 28.730469 25.117188 28.382812 24.800781 C 27.269531 23.792969 26.90625 22.1875 27.484375 20.808594 C 28.027344 19.511719 29.34375 18.640625 30.757812 18.640625 L 30.957031 18.644531 C 31.414062 18.683594 31.835938 18.332031 31.890625 17.863281 C 32.035156 16.660156 32.035156 15.433594 31.898438 14.222656 Z M 16.023438 21.371094 C 13.082031 21.371094 10.6875 18.976562 10.6875 16.035156 C 10.6875 13.089844 13.082031 10.695312 16.023438 10.695312 C 18.96875 10.695312 21.363281 13.089844 21.363281 16.035156 C 21.363281 18.976562 18.96875 21.371094 16.023438 21.371094 Z M 16.023438 21.371094 "/>
        </g>
        <g id="icon-add">
            <path  d="M 16 0 C 7.179688 0 0 7.175781 0 16 C 0 24.824219 7.179688 32 16 32 C 24.820312 32 32 24.824219 32 16 C 32 7.175781 24.820312 0 16 0 Z M 16 30.769531 C 7.855469 30.769531 1.230469 24.144531 1.230469 16 C 1.230469 7.855469 7.855469 1.230469 16 1.230469 C 24.144531 1.230469 30.769531 7.855469 30.769531 16 C 30.769531 24.144531 24.144531 30.769531 16 30.769531 Z M 16 30.769531 "/>
            <path  d="M 23.691406 15.382812 L 16.617188 15.382812 L 16.617188 8.617188 C 16.617188 8.273438 16.339844 8 16 8 C 15.660156 8 15.382812 8.273438 15.382812 8.617188 L 15.382812 15.382812 L 8.308594 15.382812 C 7.96875 15.382812 7.691406 15.660156 7.691406 16 C 7.691406 16.339844 7.96875 16.617188 8.308594 16.617188 L 15.382812 16.617188 L 15.382812 24 C 15.382812 24.339844 15.660156 24.617188 16 24.617188 C 16.339844 24.617188 16.617188 24.339844 16.617188 24 L 16.617188 16.617188 L 23.691406 16.617188 C 24.03125 16.617188 24.308594 16.339844 24.308594 16 C 24.308594 15.660156 24.03125 15.382812 23.691406 15.382812 Z M 23.691406 15.382812 "/>
        </g>
        <g>
            <path id="icon-location" d="M 16 0 C 9.609375 0 4.410156 5.199219 4.410156 11.589844 C 4.410156 19.519531 14.78125 31.160156 15.222656 31.652344 C 15.636719 32.117188 16.363281 32.113281 16.777344 31.652344 C 17.21875 31.160156 27.589844 19.519531 27.589844 11.589844 C 27.589844 5.199219 22.390625 0 16 0 Z M 16 17.421875 C 12.785156 17.421875 10.167969 14.804688 10.167969 11.589844 C 10.167969 8.375 12.785156 5.757812 16 5.757812 C 19.214844 5.757812 21.832031 8.375 21.832031 11.589844 C 21.832031 14.804688 19.214844 17.421875 16 17.421875 Z M 16 17.421875 "/>
        </g>
        <g id="icon-notebook">
            <path d="M 30.40625 0 L 28.257812 0 C 27.378906 0 26.667969 0.714844 26.667969 1.59375 L 26.667969 26.808594 L 28.800781 30.542969 L 28.800781 31.464844 C 28.800781 31.761719 29.039062 32 29.332031 32 C 29.628906 32 29.867188 31.761719 29.867188 31.464844 L 29.867188 30.542969 L 32 26.808594 L 32 1.59375 C 32 0.714844 31.285156 0 30.40625 0 Z M 27.734375 4.800781 L 30.933594 4.800781 L 30.933594 5.867188 L 27.734375 5.867188 Z M 29.332031 29.324219 L 28.117188 27.199219 L 30.546875 27.199219 Z M 30.933594 26.132812 L 27.734375 26.132812 L 27.734375 6.933594 L 30.933594 6.933594 Z M 27.734375 3.734375 L 27.734375 1.59375 C 27.734375 1.300781 27.96875 1.066406 28.257812 1.066406 L 30.40625 1.066406 C 30.699219 1.066406 30.933594 1.300781 30.933594 1.59375 L 30.933594 3.734375 Z M 27.734375 3.734375 "/>
            <path d="M 0 0 L 0 32 L 24.535156 32 L 24.535156 0 Z M 1.066406 30.933594 L 1.066406 1.066406 L 4.265625 1.066406 L 4.265625 30.933594 Z M 23.464844 1.066406 L 23.464844 30.933594 L 5.332031 30.933594 L 5.332031 1.066406 Z M 23.464844 1.066406 "/>
            <path d="M 20.800781 12.800781 L 20.800781 5.332031 L 8 5.332031 L 8 12.800781 Z M 9.066406 6.398438 L 19.734375 6.398438 L 19.734375 11.734375 L 9.066406 11.734375 Z M 9.066406 6.398438 "/>
            <path d="M 10.667969 7.464844 L 18.132812 7.464844 L 18.132812 8.535156 L 10.667969 8.535156 Z M 10.667969 7.464844 "/>
            <path d="M 10.667969 9.601562 L 18.132812 9.601562 L 18.132812 10.667969 L 10.667969 10.667969 Z M 10.667969 9.601562 "/>
        </g>
        <g id="icon-sun1">
            <path style=" stroke:none;fill-rule:nonzero;fill:rgb(98.823529%,62.352941%,39.607843%);fill-opacity:1;" d="M 31.710938 15.449219 L 27.589844 12.574219 C 27.078125 12.21875 26.507812 11.992188 25.925781 11.886719 C 26.265625 11.402344 26.507812 10.84375 26.617188 10.226562 L 27.5 5.28125 C 27.582031 4.820312 27.179688 4.417969 26.71875 4.5 L 21.773438 5.382812 C 21.15625 5.492188 20.597656 5.734375 20.113281 6.074219 C 20.007812 5.492188 19.78125 4.921875 19.425781 4.410156 L 16.550781 0.289062 C 16.285156 -0.0976562 15.714844 -0.0976562 15.449219 0.289062 L 12.574219 4.410156 C 12.21875 4.921875 11.992188 5.492188 11.886719 6.074219 C 11.402344 5.734375 10.84375 5.492188 10.226562 5.382812 L 5.28125 4.5 C 4.820312 4.417969 4.417969 4.820312 4.5 5.28125 L 5.382812 10.226562 C 5.492188 10.84375 5.734375 11.402344 6.074219 11.886719 C 5.492188 11.992188 4.921875 12.21875 4.410156 12.574219 L 0.289062 15.449219 C -0.0976562 15.714844 -0.0976562 16.285156 0.289062 16.550781 L 4.410156 19.425781 C 4.921875 19.78125 5.492188 20.007812 6.074219 20.113281 C 5.734375 20.597656 5.492188 21.15625 5.382812 21.773438 L 4.5 26.71875 C 4.417969 27.179688 4.820312 27.582031 5.28125 27.5 L 10.226562 26.617188 C 10.84375 26.507812 11.402344 26.265625 11.886719 25.925781 C 11.992188 26.507812 12.21875 27.078125 12.574219 27.589844 L 15.449219 31.710938 C 15.714844 32.097656 16.285156 32.097656 16.550781 31.710938 L 19.425781 27.589844 C 19.78125 27.078125 20.007812 26.507812 20.113281 25.925781 C 20.597656 26.265625 21.15625 26.507812 21.773438 26.617188 L 26.71875 27.5 C 27.179688 27.582031 27.582031 27.179688 27.5 26.71875 L 26.617188 21.773438 C 26.507812 21.15625 26.265625 20.597656 25.925781 20.113281 C 26.507812 20.007812 27.078125 19.78125 27.589844 19.425781 L 31.710938 16.550781 C 32.097656 16.285156 32.097656 15.714844 31.710938 15.449219 Z M 31.710938 15.449219 "/>
            <path style=" stroke:none;fill-rule:nonzero;fill:rgb(98.431373%,86.666667%,33.72549%);fill-opacity:1;" d="M 25.511719 16 C 25.511719 21.253906 21.253906 25.511719 16 25.511719 C 10.746094 25.511719 6.488281 21.253906 6.488281 16 C 6.488281 10.746094 10.746094 6.488281 16 6.488281 C 21.253906 6.488281 25.511719 10.746094 25.511719 16 Z M 25.511719 16 "/>
            <path style=" stroke:none;fill-rule:nonzero;fill:rgb(100%,43.137255%,43.137255%);fill-opacity:1;" d="M 13.019531 15.152344 C 13.019531 14.386719 12.238281 13.765625 11.273438 13.765625 C 10.3125 13.765625 9.53125 14.386719 9.53125 15.152344 C 9.53125 15.917969 10.3125 16.542969 11.273438 16.542969 C 12.238281 16.542969 13.019531 15.917969 13.019531 15.152344 Z M 13.019531 15.152344 "/>
            <path style=" stroke:none;fill-rule:nonzero;fill:rgb(100%,43.137255%,43.137255%);fill-opacity:1;" d="M 22.46875 15.152344 C 22.46875 14.386719 21.6875 13.765625 20.726562 13.765625 C 19.761719 13.765625 18.980469 14.386719 18.980469 15.152344 C 18.980469 15.917969 19.761719 16.542969 20.726562 16.542969 C 21.6875 16.542969 22.46875 15.917969 22.46875 15.152344 Z M 22.46875 15.152344 "/>
            <path style=" stroke:none;fill-rule:nonzero;fill:rgb(25.490196%,29.411765%,34.509804%);fill-opacity:1;" d="M 11.566406 13.980469 C 11.308594 13.980469 11.097656 13.773438 11.097656 13.511719 L 11.097656 12.765625 C 11.097656 12.503906 11.308594 12.296875 11.566406 12.296875 C 11.824219 12.296875 12.035156 12.503906 12.035156 12.765625 L 12.035156 13.511719 C 12.035156 13.773438 11.824219 13.980469 11.566406 13.980469 Z M 11.566406 13.980469 "/>
            <path style=" stroke:none;fill-rule:nonzero;fill:rgb(25.490196%,29.411765%,34.509804%);fill-opacity:1;" d="M 16 15.347656 C 15.300781 15.347656 14.738281 14.78125 14.738281 14.085938 L 14.738281 13.167969 C 14.738281 12.976562 14.890625 12.820312 15.082031 12.820312 L 16.917969 12.820312 C 17.109375 12.820312 17.261719 12.976562 17.261719 13.167969 L 17.261719 14.085938 C 17.261719 14.78125 16.699219 15.347656 16 15.347656 Z M 16 15.347656 "/>
            <path style=" stroke:none;fill-rule:nonzero;fill:rgb(25.490196%,29.411765%,34.509804%);fill-opacity:1;" d="M 20.433594 13.980469 C 20.175781 13.980469 19.964844 13.773438 19.964844 13.511719 L 19.964844 12.765625 C 19.964844 12.503906 20.175781 12.296875 20.433594 12.296875 C 20.691406 12.296875 20.902344 12.503906 20.902344 12.765625 L 20.902344 13.511719 C 20.902344 13.773438 20.691406 13.980469 20.433594 13.980469 Z M 20.433594 13.980469 "/>
            <path style=" stroke:none;fill-rule:nonzero;fill:rgb(98.823529%,62.352941%,39.607843%);fill-opacity:1;" d="M 10.78125 3.871094 C 10.597656 3.871094 10.421875 3.761719 10.347656 3.582031 L 9.703125 2.023438 C 9.605469 1.785156 9.71875 1.507812 9.957031 1.410156 C 10.195312 1.3125 10.46875 1.425781 10.570312 1.664062 L 11.214844 3.222656 C 11.3125 3.460938 11.199219 3.734375 10.960938 3.835938 C 10.902344 3.859375 10.839844 3.871094 10.78125 3.871094 Z M 10.78125 3.871094 "/>
            <path style=" stroke:none;fill-rule:nonzero;fill:rgb(98.823529%,62.352941%,39.607843%);fill-opacity:1;" d="M 3.402344 11.25 C 3.34375 11.25 3.28125 11.238281 3.222656 11.214844 L 1.664062 10.570312 C 1.425781 10.46875 1.3125 10.195312 1.410156 9.957031 C 1.507812 9.71875 1.785156 9.605469 2.023438 9.703125 L 3.582031 10.347656 C 3.820312 10.449219 3.933594 10.722656 3.835938 10.960938 C 3.761719 11.140625 3.585938 11.25 3.402344 11.25 Z M 3.402344 11.25 "/>
            <path style=" stroke:none;fill-rule:nonzero;fill:rgb(98.823529%,62.352941%,39.607843%);fill-opacity:1;" d="M 1.84375 22.332031 C 1.660156 22.332031 1.484375 22.222656 1.410156 22.042969 C 1.3125 21.804688 1.425781 21.53125 1.664062 21.429688 L 3.222656 20.785156 C 3.460938 20.6875 3.734375 20.800781 3.835938 21.039062 C 3.933594 21.277344 3.820312 21.550781 3.582031 21.652344 L 2.023438 22.296875 C 1.964844 22.320312 1.902344 22.332031 1.84375 22.332031 Z M 1.84375 22.332031 "/>
            <path style=" stroke:none;fill-rule:nonzero;fill:rgb(98.823529%,62.352941%,39.607843%);fill-opacity:1;" d="M 10.136719 30.625 C 10.074219 30.625 10.015625 30.613281 9.957031 30.589844 C 9.71875 30.492188 9.605469 30.214844 9.703125 29.976562 L 10.347656 28.417969 C 10.449219 28.179688 10.722656 28.066406 10.960938 28.164062 C 11.199219 28.265625 11.3125 28.539062 11.214844 28.777344 L 10.570312 30.335938 C 10.496094 30.515625 10.320312 30.625 10.136719 30.625 Z M 10.136719 30.625 "/>
            <path style=" stroke:none;fill-rule:nonzero;fill:rgb(98.823529%,62.352941%,39.607843%);fill-opacity:1;" d="M 21.863281 30.625 C 21.679688 30.625 21.503906 30.515625 21.429688 30.335938 L 20.785156 28.777344 C 20.6875 28.539062 20.800781 28.265625 21.039062 28.164062 C 21.277344 28.066406 21.550781 28.179688 21.652344 28.417969 L 22.296875 29.976562 C 22.394531 30.214844 22.28125 30.492188 22.042969 30.589844 C 21.984375 30.613281 21.921875 30.625 21.863281 30.625 Z M 21.863281 30.625 "/>
            <path style=" stroke:none;fill-rule:nonzero;fill:rgb(98.823529%,62.352941%,39.607843%);fill-opacity:1;" d="M 30.15625 22.332031 C 30.097656 22.332031 30.035156 22.320312 29.976562 22.296875 L 28.417969 21.652344 C 28.179688 21.550781 28.066406 21.277344 28.164062 21.039062 C 28.265625 20.800781 28.539062 20.6875 28.777344 20.785156 L 30.335938 21.429688 C 30.574219 21.53125 30.6875 21.804688 30.589844 22.042969 C 30.515625 22.222656 30.339844 22.332031 30.15625 22.332031 Z M 30.15625 22.332031 "/>
            <path style=" stroke:none;fill-rule:nonzero;fill:rgb(98.823529%,62.352941%,39.607843%);fill-opacity:1;" d="M 28.597656 11.25 C 28.414062 11.25 28.238281 11.140625 28.164062 10.960938 C 28.066406 10.722656 28.179688 10.449219 28.417969 10.347656 L 29.976562 9.703125 C 30.214844 9.605469 30.492188 9.71875 30.589844 9.957031 C 30.6875 10.195312 30.574219 10.46875 30.335938 10.570312 L 28.777344 11.214844 C 28.71875 11.238281 28.65625 11.25 28.597656 11.25 Z M 28.597656 11.25 "/>
            <path style=" stroke:none;fill-rule:nonzero;fill:rgb(98.823529%,62.352941%,39.607843%);fill-opacity:1;" d="M 21.21875 3.871094 C 21.15625 3.871094 21.097656 3.859375 21.039062 3.835938 C 20.800781 3.734375 20.6875 3.460938 20.785156 3.222656 L 21.429688 1.664062 C 21.53125 1.425781 21.804688 1.3125 22.042969 1.410156 C 22.28125 1.507812 22.394531 1.785156 22.296875 2.023438 L 21.652344 3.582031 C 21.578125 3.761719 21.402344 3.871094 21.21875 3.871094 Z M 21.21875 3.871094 "/>
        </g>
        <g id="icon-create-task">
            <path style=" stroke:none;fill-rule:nonzero;fill:rgb(36.470588%,34.509804%,37.647059%);fill-opacity:1;" d="M 32 16 C 32 16.375 31.988281 16.746094 31.960938 17.113281 C 31.703125 20.886719 30.136719 24.296875 27.714844 26.898438 L 27.703125 26.910156 C 27.578125 27.046875 27.445312 27.179688 27.3125 27.3125 C 24.417969 30.210938 20.417969 32 16 32 C 11.71875 32 7.832031 30.320312 4.960938 27.582031 C 4.867188 27.492188 4.773438 27.398438 4.679688 27.304688 C 4.589844 27.21875 4.503906 27.128906 4.417969 27.039062 C 1.679688 24.167969 0 20.28125 0 16 C 0 11.789062 1.625 7.957031 4.285156 5.101562 L 4.296875 5.089844 C 4.421875 4.953125 4.554688 4.820312 4.6875 4.6875 C 7.582031 1.789062 11.582031 0 16 0 C 20.75 0 25.019531 2.070312 27.949219 5.359375 C 30.46875 8.1875 32 11.914062 32 16 Z M 32 16 "/>
            <path style=" stroke:none;fill-rule:nonzero;fill:rgb(44.313725%,21.568627%,45.882353%);fill-opacity:1;" d="M 32 16 C 32 16.375 31.988281 16.746094 31.960938 17.113281 C 31.703125 20.886719 30.136719 24.296875 27.714844 26.898438 L 27.703125 26.910156 C 27.578125 27.046875 27.445312 27.179688 27.3125 27.3125 C 24.417969 30.210938 20.417969 32 16 32 C 11.71875 32 7.832031 30.320312 4.960938 27.582031 L 4.417969 27.039062 C 1.679688 24.167969 0 20.28125 0 16 C 0 11.789062 1.625 7.957031 4.285156 5.101562 L 4.296875 5.089844 C 4.421875 4.953125 4.554688 4.820312 4.6875 4.6875 C 7.582031 1.789062 11.582031 0 16 0 C 20.75 0 25.019531 2.070312 27.949219 5.359375 C 30.46875 8.1875 32 11.914062 32 16 Z M 32 16 "/>
            <path style=" stroke:none;fill-rule:nonzero;fill:rgb(40%,72.941176%,92.941176%);fill-opacity:1;" d="M 31.960938 17.113281 C 31.703125 20.886719 30.136719 24.296875 27.714844 26.898438 L 27.703125 26.910156 C 27.578125 27.046875 27.445312 27.179688 27.3125 27.3125 C 24.417969 30.210938 20.417969 32 16 32 C 11.71875 32 7.832031 30.320312 4.960938 27.582031 C 4.867188 27.492188 4.773438 27.398438 4.679688 27.304688 L 23.332031 8.65625 L 23.417969 8.570312 Z M 31.960938 17.113281 "/>
            <path style=" stroke:none;fill-rule:nonzero;fill:rgb(96.862745%,30.980392%,30.980392%);fill-opacity:1;" d="M 15.335938 26.449219 C 13.832031 28.074219 11.300781 28.109375 9.75 26.558594 C 8.875 25.679688 8.507812 24.484375 8.648438 23.339844 L 4.683594 27.304688 L 4.679688 27.304688 C 4.589844 27.21875 4.503906 27.128906 4.417969 27.039062 C 1.679688 24.167969 0 20.28125 0 16 C 0 11.789062 1.625 7.957031 4.285156 5.101562 L 4.296875 5.089844 L 4.691406 4.699219 L 8.578125 8.589844 C 7.480469 8.496094 6.347656 8.867188 5.503906 9.707031 C 3.953125 11.257812 3.992188 13.792969 5.617188 15.296875 C 7.066406 16.636719 9.332031 16.660156 10.8125 15.347656 C 11.769531 14.496094 12.199219 13.289062 12.101562 12.117188 L 15.980469 16.003906 L 15.988281 16.011719 L 12.015625 19.980469 C 13.210938 19.832031 14.460938 20.242188 15.347656 21.207031 C 16.703125 22.683594 16.695312 24.984375 15.335938 26.449219 Z M 15.335938 26.449219 "/>
            <path style=" stroke:none;fill-rule:nonzero;fill:rgb(100%,88.235294%,32.156863%);fill-opacity:1;" d="M 32 16 C 32 16.375 31.988281 16.746094 31.960938 17.113281 C 31.703125 20.886719 30.136719 24.296875 27.714844 26.898438 L 27.289062 27.324219 L 23.398438 23.429688 C 24.5 23.527344 25.628906 23.15625 26.472656 22.3125 C 28.023438 20.765625 27.988281 18.226562 26.363281 16.726562 C 24.910156 15.382812 22.644531 15.359375 21.167969 16.675781 C 20.207031 17.527344 19.777344 18.734375 19.878906 19.902344 L 15.988281 16.011719 L 19.964844 12.042969 C 19.957031 12.042969 19.949219 12.042969 19.941406 12.042969 C 18.75 12.183594 17.511719 11.773438 16.628906 10.816406 C 15.277344 9.339844 15.28125 7.039062 16.640625 5.570312 C 18.144531 3.949219 20.679688 3.910156 22.226562 5.460938 C 23.097656 6.335938 23.464844 7.519531 23.332031 8.652344 C 23.332031 8.664062 23.332031 8.671875 23.328125 8.679688 L 23.429688 8.582031 L 27.300781 4.710938 L 27.949219 5.359375 C 30.46875 8.1875 32 11.914062 32 16 Z M 32 16 "/>
        </g>
        <g id='icon-bell'>
            <path style=" stroke:none;fill-rule:nonzero;fill:rgb(0%,0%,0%);fill-opacity:1;" d="M 29.890625 26.351562 C 27.179688 23.65625 25.804688 20.46875 25.804688 16.871094 L 25.804688 11.640625 C 25.832031 7.648438 23.148438 5.003906 20.84375 3.949219 C 20.183594 3.648438 19.503906 3.414062 18.808594 3.242188 L 18.808594 2.910156 C 18.808594 1.304688 17.503906 0 15.902344 0 C 14.296875 0 12.992188 1.304688 12.992188 2.910156 L 12.992188 3.292969 C 12.367188 3.460938 11.757812 3.679688 11.160156 3.957031 C 8.613281 5.128906 6.03125 7.960938 6.007812 11.636719 L 6.007812 16.871094 C 6.007812 20.589844 4.695312 23.777344 2.109375 26.351562 C 1.953125 26.503906 1.898438 26.730469 1.964844 26.9375 C 2.027344 27.144531 2.207031 27.300781 2.417969 27.335938 L 7.941406 28.289062 C 8.96875 28.46875 9.917969 28.613281 10.820312 28.734375 C 11.835938 30.722656 13.828125 32 16.007812 32 C 18.1875 32 20.179688 30.722656 21.195312 28.730469 C 22.09375 28.613281 23.035156 28.46875 24.058594 28.289062 L 29.578125 27.335938 C 29.792969 27.300781 29.96875 27.144531 30.035156 26.9375 C 30.101562 26.730469 30.046875 26.503906 29.890625 26.351562 Z M 14.15625 2.910156 C 14.15625 1.945312 14.9375 1.164062 15.902344 1.164062 C 16.863281 1.164062 17.644531 1.945312 17.644531 2.910156 L 17.644531 3.015625 C 16.488281 2.847656 15.308594 2.855469 14.15625 3.042969 Z M 16.007812 30.835938 C 14.535156 30.835938 13.15625 30.105469 12.273438 28.90625 C 13.574219 29.042969 14.789062 29.109375 16 29.109375 C 17.21875 29.109375 18.4375 29.042969 19.742188 28.90625 C 18.855469 30.105469 17.480469 30.835938 16.007812 30.835938 Z M 23.859375 27.144531 C 22.742188 27.335938 21.71875 27.492188 20.753906 27.617188 C 20.753906 27.617188 20.75 27.617188 20.75 27.617188 C 20.324219 27.671875 19.910156 27.71875 19.503906 27.757812 C 19.5 27.757812 19.496094 27.757812 19.492188 27.757812 C 19.121094 27.796875 18.757812 27.824219 18.398438 27.851562 C 18.332031 27.859375 18.265625 27.863281 18.195312 27.867188 C 17.886719 27.886719 17.578125 27.902344 17.273438 27.914062 C 17.210938 27.917969 17.148438 27.921875 17.085938 27.921875 C 16.359375 27.945312 15.648438 27.945312 14.921875 27.921875 C 14.859375 27.921875 14.792969 27.917969 14.730469 27.914062 C 14.429688 27.902344 14.125 27.886719 13.820312 27.867188 C 13.746094 27.863281 13.675781 27.859375 13.601562 27.851562 C 13.253906 27.828125 12.898438 27.796875 12.539062 27.761719 C 12.523438 27.761719 12.511719 27.757812 12.5 27.757812 C 12.097656 27.71875 11.6875 27.671875 11.265625 27.617188 C 11.261719 27.617188 11.261719 27.617188 11.257812 27.617188 C 10.289062 27.496094 9.261719 27.335938 8.140625 27.144531 L 3.683594 26.375 C 6 23.722656 7.171875 20.535156 7.171875 16.871094 L 7.171875 11.640625 C 7.191406 8.476562 9.433594 6.03125 11.648438 5.011719 C 12.304688 4.710938 12.988281 4.484375 13.683594 4.324219 C 13.6875 4.324219 13.695312 4.324219 13.699219 4.324219 C 15.132812 4 16.660156 3.984375 18.109375 4.28125 C 18.117188 4.285156 18.125 4.28125 18.132812 4.28125 C 18.890625 4.441406 19.640625 4.679688 20.359375 5.007812 C 22.503906 5.992188 24.660156 8.417969 24.640625 11.636719 L 24.640625 16.875 C 24.640625 20.382812 25.90625 23.648438 28.316406 26.375 Z M 23.859375 27.144531 "/>
            <path style=" stroke:none;fill-rule:nonzero;fill:rgb(0%,0%,0%);fill-opacity:1;" d="M 19.632812 6.597656 C 17.378906 5.566406 14.617188 5.566406 12.378906 6.597656 C 11.101562 7.1875 8.9375 8.910156 8.917969 11.632812 C 8.917969 11.953125 9.175781 12.214844 9.496094 12.21875 C 9.5 12.21875 9.5 12.21875 9.5 12.21875 C 9.820312 12.21875 10.082031 11.960938 10.082031 11.640625 C 10.097656 9.5 11.839844 8.128906 12.867188 7.65625 C 14.804688 6.761719 17.199219 6.761719 19.148438 7.65625 C 19.441406 7.789062 19.785156 7.660156 19.921875 7.367188 C 20.054688 7.074219 19.925781 6.730469 19.632812 6.597656 Z M 19.632812 6.597656 "/>
        </g>
    </defs>

    <g>
        <use  fill="#425566" xlink:href="#icon-user-pass" transform="translate(0 0)"></use>
        <use  fill="#2E3A46" xlink:href="#icon-user-pass" transform="translate(0 32)"></use>
        <use  fill="#425566" xlink:href="#icon-user" transform="translate(0 64)"></use>
        <use  fill="#2E3A46" xlink:href="#icon-user" transform="translate(0 96)"></use>
        <use  fill="#2E3A46" xlink:href="#icon-sun" transform="translate(0 128)"></use>
        <use  fill="#2E3A46" xlink:href="#icon-calendar" transform="translate(0 160)"></use>
        <use  fill="#2E3A46" xlink:href="#icon-completed" transform="translate(0 192)"></use>
        <use  fill="#2E3A46" xlink:href="#icon-hz" transform="translate(0 224)"></use>
        <use  fill="#889caf" xlink:href="#icon-diagram" transform="translate(0 256)"></use>
        <use  fill="#889caf" xlink:href="#icon-setting" transform="translate(0 288)"></use>
        <use  fill="#889caf" xlink:href="#icon-add" transform="translate(0 320)"></use>
        <use  fill="#f2f6fa" xlink:href="#icon-diagram" transform="translate(0 352)"></use>
        <use  fill="#f2f6fa" xlink:href="#icon-setting" transform="translate(0 384)"></use>
        <use  fill="#f2f6fa" xlink:href="#icon-add" transform="translate(0 416)"></use>
        <use fill="#a9a9a9" xlink:href="#icon-location" transform="translate(0 448)"/>
        <use  fill="#a9a9a9" xlink:href="#icon-user" transform="translate(0 480)"></use>
        <use  fill="#a9a9a9" xlink:href="#icon-notebook" transform="translate(0 512)"></use>
        <use  fill="#a9a9a9" xlink:href="#icon-create-task" transform="translate(0 544)"></use>
        <use  fill="#637282" xlink:href="#icon-bell" transform="translate(0 576)"></use>
    </g>
</svg>
